0
SECTION
2
ENTITIES
0
LINE
8
FCrtYd
62
7
10
46.455
20
-20.845
11
46.455
21
-22.305
0
LINE
8
FCrtYd
62
7
10
43.495
20
-22.305
11
43.495
21
-20.845
0
LINE
8
FCrtYd
62
7
10
43.495
20
-20.845
11
46.455
21
-20.845
0
LINE
8
FCrtYd
62
7
10
46.455
20
-22.305
11
43.495
21
-22.305
0
LINE
8
FFab
62
5
10
45.775
20
-21.1625
11
45.775
21
-21.9875
0
LINE
8
FFab
62
5
10
44.175
20
-21.1625
11
45.775
21
-21.1625
0
LINE
8
FFab
62
5
10
45.775
20
-21.9875
11
44.175
21
-21.9875
0
LINE
8
FFab
62
5
10
44.175
20
-21.9875
11
44.175
21
-21.1625
0
LINE
8
FCrtYd
62
7
10
50.155
20
-25.145
11
50.155
21
-26.605
0
LINE
8
FCrtYd
62
7
10
47.195
20
-25.145
11
50.155
21
-25.145
0
LINE
8
FCrtYd
62
7
10
47.195
20
-26.605
11
47.195
21
-25.145
0
LINE
8
FCrtYd
62
7
10
50.155
20
-26.605
11
47.195
21
-26.605
0
LINE
8
FFab
62
5
10
47.875
20
-25.775
11
47.875
21
-26.275
0
LINE
8
FFab
62
5
10
49.475
20
-25.475
11
48.175
21
-25.475
0
LINE
8
FFab
62
5
10
49.475
20
-26.275
11
49.475
21
-25.475
0
LINE
8
FFab
62
5
10
47.875
20
-26.275
11
49.475
21
-26.275
0
LINE
8
FFab
62
5
10
48.175
20
-25.475
11
47.875
21
-25.775
0
LINE
8
FCrtYd
62
7
10
43.495
20
-27.645
11
46.455
21
-27.645
0
LINE
8
FCrtYd
62
7
10
46.455
20
-29.105
11
43.495
21
-29.105
0
LINE
8
FCrtYd
62
7
10
46.455
20
-27.645
11
46.455
21
-29.105
0
LINE
8
FCrtYd
62
7
10
43.495
20
-29.105
11
43.495
21
-27.645
0
LINE
8
FFab
62
5
10
44.175
20
-28.775
11
45.775
21
-28.775
0
LINE
8
FFab
62
5
10
45.775
20
-28.775
11
45.775
21
-27.975
0
LINE
8
FFab
62
5
10
44.175
20
-28.275
11
44.175
21
-28.775
0
LINE
8
FFab
62
5
10
45.775
20
-27.975
11
44.475
21
-27.975
0
LINE
8
FFab
62
5
10
44.475
20
-27.975
11
44.175
21
-28.275
0
LINE
8
FCrtYd
62
7
10
50.155
20
-28.205
11
47.195
21
-28.205
0
LINE
8
FCrtYd
62
7
10
47.195
20
-26.745
11
50.155
21
-26.745
0
LINE
8
FCrtYd
62
7
10
47.195
20
-28.205
11
47.195
21
-26.745
0
LINE
8
FCrtYd
62
7
10
50.155
20
-26.745
11
50.155
21
-28.205
0
LINE
8
FFab
62
5
10
47.875
20
-27.375
11
47.875
21
-27.875
0
LINE
8
FFab
62
5
10
48.175
20
-27.075
11
47.875
21
-27.375
0
LINE
8
FFab
62
5
10
49.475
20
-27.075
11
48.175
21
-27.075
0
LINE
8
FFab
62
5
10
47.875
20
-27.875
11
49.475
21
-27.875
0
LINE
8
FFab
62
5
10
49.475
20
-27.875
11
49.475
21
-27.075
0
LINE
8
FCrtYd
62
7
10
50.295
20
-26.745
11
53.255
21
-26.745
0
LINE
8
FCrtYd
62
7
10
50.295
20
-28.205
11
50.295
21
-26.745
0
LINE
8
FCrtYd
62
7
10
53.255
20
-28.205
11
50.295
21
-28.205
0
LINE
8
FCrtYd
62
7
10
53.255
20
-26.745
11
53.255
21
-28.205
0
LINE
8
FFab
62
5
10
52.575
20
-27.0625
11
52.575
21
-27.8875
0
LINE
8
FFab
62
5
10
52.575
20
-27.8875
11
50.975
21
-27.8875
0
LINE
8
FFab
62
5
10
50.975
20
-27.8875
11
50.975
21
-27.0625
0
LINE
8
FFab
62
5
10
50.975
20
-27.0625
11
52.575
21
-27.0625
0
LINE
8
FCrtYd
62
7
10
43.495
20
-20.705
11
43.495
21
-19.245
0
LINE
8
FCrtYd
62
7
10
46.455
20
-20.705
11
43.495
21
-20.705
0
LINE
8
FCrtYd
62
7
10
46.455
20
-19.245
11
46.455
21
-20.705
0
LINE
8
FCrtYd
62
7
10
43.495
20
-19.245
11
46.455
21
-19.245
0
LINE
8
FFab
62
5
10
45.775
20
-19.5625
11
45.775
21
-20.3875
0
LINE
8
FFab
62
5
10
44.175
20
-20.3875
11
44.175
21
-19.5625
0
LINE
8
FFab
62
5
10
45.775
20
-20.3875
11
44.175
21
-20.3875
0
LINE
8
FFab
62
5
10
44.175
20
-19.5625
11
45.775
21
-19.5625
0
LINE
8
FCrtYd
62
7
10
43.495
20
-24.03
11
43.495
21
-22.57
0
LINE
8
FCrtYd
62
7
10
43.495
20
-22.57
11
46.455
21
-22.57
0
LINE
8
FCrtYd
62
7
10
46.455
20
-22.57
11
46.455
21
-24.03
0
LINE
8
FCrtYd
62
7
10
46.455
20
-24.03
11
43.495
21
-24.03
0
LINE
8
FFab
62
5
10
45.775
20
-22.8875
11
45.775
21
-23.7125
0
LINE
8
FFab
62
5
10
44.175
20
-22.8875
11
45.775
21
-22.8875
0
LINE
8
FFab
62
5
10
44.175
20
-23.7125
11
44.175
21
-22.8875
0
LINE
8
FFab
62
5
10
45.775
20
-23.7125
11
44.175
21
-23.7125
0
LINE
8
FCrtYd
62
7
10
43.495
20
-24.145
11
46.455
21
-24.145
0
LINE
8
FCrtYd
62
7
10
46.455
20
-25.605
11
43.495
21
-25.605
0
LINE
8
FCrtYd
62
7
10
43.495
20
-25.605
11
43.495
21
-24.145
0
LINE
8
FCrtYd
62
7
10
46.455
20
-24.145
11
46.455
21
-25.605
0
LINE
8
FFab
62
5
10
44.175
20
-24.775
11
44.175
21
-25.275
0
LINE
8
FFab
62
5
10
45.775
20
-24.475
11
44.475
21
-24.475
0
LINE
8
FFab
62
5
10
45.775
20
-25.275
11
45.775
21
-24.475
0
LINE
8
FFab
62
5
10
44.175
20
-25.275
11
45.775
21
-25.275
0
LINE
8
FFab
62
5
10
44.475
20
-24.475
11
44.175
21
-24.775
0
LINE
8
FCrtYd
62
7
10
53.255
20
-26.655
11
50.295
21
-26.655
0
LINE
8
FCrtYd
62
7
10
50.295
20
-25.195
11
53.255
21
-25.195
0
LINE
8
FCrtYd
62
7
10
53.255
20
-25.195
11
53.255
21
-26.655
0
LINE
8
FCrtYd
62
7
10
50.295
20
-26.655
11
50.295
21
-25.195
0
LINE
8
FFab
62
5
10
50.975
20
-26.3375
11
50.975
21
-25.5125
0
LINE
8
FFab
62
5
10
52.575
20
-25.5125
11
52.575
21
-26.3375
0
LINE
8
FFab
62
5
10
50.975
20
-25.5125
11
52.575
21
-25.5125
0
LINE
8
FFab
62
5
10
52.575
20
-26.3375
11
50.975
21
-26.3375
0
LINE
8
FCrtYd
62
7
10
58.245
20
-28.53
11
58.245
21
-25.57
0
LINE
8
FCrtYd
62
7
10
59.705
20
-28.53
11
58.245
21
-28.53
0
LINE
8
FCrtYd
62
7
10
59.705
20
-25.57
11
59.705
21
-28.53
0
LINE
8
FCrtYd
62
7
10
58.245
20
-25.57
11
59.705
21
-25.57
0
LINE
8
FFab
62
5
10
59.3875
20
-26.25
11
59.3875
21
-27.85
0
LINE
8
FFab
62
5
10
58.5625
20
-27.85
11
58.5625
21
-26.25
0
LINE
8
FFab
62
5
10
58.5625
20
-26.25
11
59.3875
21
-26.25
0
LINE
8
FFab
62
5
10
59.3875
20
-27.85
11
58.5625
21
-27.85
0
LINE
8
FCrtYd
62
7
10
63.055
20
-23.945
11
63.055
21
-25.405
0
LINE
8
FCrtYd
62
7
10
60.095
20
-25.405
11
60.095
21
-23.945
0
LINE
8
FCrtYd
62
7
10
60.095
20
-23.945
11
63.055
21
-23.945
0
LINE
8
FCrtYd
62
7
10
63.055
20
-25.405
11
60.095
21
-25.405
0
LINE
8
FFab
62
5
10
62.375
20
-25.075
11
60.775
21
-25.075
0
LINE
8
FFab
62
5
10
62.375
20
-24.275
11
62.375
21
-25.075
0
LINE
8
FFab
62
5
10
60.775
20
-25.075
11
60.775
21
-24.275
0
LINE
8
FFab
62
5
10
60.775
20
-24.275
11
62.375
21
-24.275
0
LINE
8
FCrtYd
62
7
10
75.655
20
-24.105
11
72.695
21
-24.105
0
LINE
8
FCrtYd
62
7
10
72.695
20
-24.105
11
72.695
21
-22.645
0
LINE
8
FCrtYd
62
7
10
72.695
20
-22.645
11
75.655
21
-22.645
0
LINE
8
FCrtYd
62
7
10
75.655
20
-22.645
11
75.655
21
-24.105
0
LINE
8
FFab
62
5
10
73.375
20
-22.9625
11
74.975
21
-22.9625
0
LINE
8
FFab
62
5
10
74.975
20
-22.9625
11
74.975
21
-23.7875
0
LINE
8
FFab
62
5
10
73.375
20
-23.7875
11
73.375
21
-22.9625
0
LINE
8
FFab
62
5
10
74.975
20
-23.7875
11
73.375
21
-23.7875
0
LINE
8
FCrtYd
62
7
10
43.495
20
-32.205
11
43.495
21
-30.745
0
LINE
8
FCrtYd
62
7
10
46.455
20
-30.745
11
46.455
21
-32.205
0
LINE
8
FCrtYd
62
7
10
43.495
20
-30.745
11
46.455
21
-30.745
0
LINE
8
FCrtYd
62
7
10
46.455
20
-32.205
11
43.495
21
-32.205
0
LINE
8
FFab
62
5
10
44.175
20
-31.0625
11
45.775
21
-31.0625
0
LINE
8
FFab
62
5
10
44.175
20
-31.8875
11
44.175
21
-31.0625
0
LINE
8
FFab
62
5
10
45.775
20
-31.0625
11
45.775
21
-31.8875
0
LINE
8
FFab
62
5
10
45.775
20
-31.8875
11
44.175
21
-31.8875
0
LINE
8
FCrtYd
62
7
10
46.455
20
-33.755
11
43.495
21
-33.755
0
LINE
8
FCrtYd
62
7
10
43.495
20
-33.755
11
43.495
21
-32.295
0
LINE
8
FCrtYd
62
7
10
46.455
20
-32.295
11
46.455
21
-33.755
0
LINE
8
FCrtYd
62
7
10
43.495
20
-32.295
11
46.455
21
-32.295
0
LINE
8
FFab
62
5
10
44.175
20
-33.4375
11
44.175
21
-32.6125
0
LINE
8
FFab
62
5
10
45.775
20
-32.6125
11
45.775
21
-33.4375
0
LINE
8
FFab
62
5
10
45.775
20
-33.4375
11
44.175
21
-33.4375
0
LINE
8
FFab
62
5
10
44.175
20
-32.6125
11
45.775
21
-32.6125
0
LINE
8
FCrtYd
62
7
10
75.63
20
-33.355
11
75.63
21
-34.815
0
LINE
8
FCrtYd
62
7
10
72.67
20
-33.355
11
75.63
21
-33.355
0
LINE
8
FCrtYd
62
7
10
72.67
20
-34.815
11
72.67
21
-33.355
0
LINE
8
FCrtYd
62
7
10
75.63
20
-34.815
11
72.67
21
-34.815
0
LINE
8
FFab
62
5
10
73.35
20
-34.485
11
73.35
21
-33.685
0
LINE
8
FFab
62
5
10
74.95
20
-34.485
11
73.35
21
-34.485
0
LINE
8
FFab
62
5
10
74.95
20
-33.685
11
74.95
21
-34.485
0
LINE
8
FFab
62
5
10
73.35
20
-33.685
11
74.95
21
-33.685
0
LINE
8
FCrtYd
62
7
10
36.275
20
-24.825
11
41.775
21
-24.825
0
LINE
8
FCrtYd
62
7
10
41.775
20
-24.825
11
41.775
21
-17.525
0
LINE
8
FCrtYd
62
7
10
41.775
20
-17.525
11
36.275
21
-17.525
0
LINE
8
FCrtYd
62
7
10
36.275
20
-17.525
11
36.275
21
-24.825
0
LINE
8
FFab
62
5
10
41.525
20
-18.675
11
36.525
21
-18.675
0
LINE
8
FFab
62
5
10
36.525
20
-23.675
11
41.525
21
-23.675
0
LINE
8
FFab
62
5
10
37.125
20
-23.675
11
36.525
21
-23.075
0
LINE
8
FFab
62
5
10
36.525
20
-18.675
11
36.525
21
-23.675
0
LINE
8
FFab
62
5
10
41.525
20
-23.675
11
41.525
21
-18.675
0
CIRCLE
8
FFab
62
5
10
39.025
20
-21.175
40
1.9
0
LINE
8
FCrtYd
62
7
10
74.3
20
-12.975
11
63.1
21
-12.975
0
LINE
8
FCrtYd
62
7
10
63.1
20
-12.975
11
63.1
21
-16.575
0
LINE
8
FCrtYd
62
7
10
63.1
20
-16.575
11
74.3
21
-16.575
0
LINE
8
FCrtYd
62
7
10
74.3
20
-16.575
11
74.3
21
-12.975
0
LINE
8
FFab
62
5
10
73.135
20
-13.505
11
73.77
21
-14.14
0
LINE
8
FFab
62
5
10
63.61
20
-13.505
11
73.135
21
-13.505
0
LINE
8
FFab
62
5
10
73.77
20
-16.045
11
63.61
21
-16.045
0
LINE
8
FFab
62
5
10
63.61
20
-16.045
11
63.61
21
-13.505
0
LINE
8
FFab
62
5
10
73.77
20
-14.14
11
73.77
21
-16.045
0
LINE
8
FCrtYd
62
7
10
36.275
20
-35.325
11
41.775
21
-35.325
0
LINE
8
FCrtYd
62
7
10
36.275
20
-28.025
11
36.275
21
-35.325
0
LINE
8
FCrtYd
62
7
10
41.775
20
-28.025
11
36.275
21
-28.025
0
LINE
8
FCrtYd
62
7
10
41.775
20
-35.325
11
41.775
21
-28.025
0
LINE
8
FFab
62
5
10
36.525
20
-29.175
11
36.525
21
-34.175
0
LINE
8
FFab
62
5
10
41.525
20
-34.175
11
41.525
21
-29.175
0
LINE
8
FFab
62
5
10
40.925
20
-29.175
11
41.525
21
-29.775
0
LINE
8
FFab
62
5
10
36.525
20
-34.175
11
41.525
21
-34.175
0
LINE
8
FFab
62
5
10
41.525
20
-29.175
11
36.525
21
-29.175
0
CIRCLE
8
FFab
62
5
10
39.025
20
-31.675
40
1.9
0
LINE
8
FCrtYd
62
7
10
75.68
20
-21.095
11
75.68
21
-22.555
0
LINE
8
FCrtYd
62
7
10
75.68
20
-22.555
11
72.72
21
-22.555
0
LINE
8
FCrtYd
62
7
10
72.72
20
-21.095
11
75.68
21
-21.095
0
LINE
8
FCrtYd
62
7
10
72.72
20
-22.555
11
72.72
21
-21.095
0
LINE
8
FFab
62
5
10
73.4
20
-22.2375
11
73.4
21
-21.4125
0
LINE
8
FFab
62
5
10
75.0
20
-22.2375
11
73.4
21
-22.2375
0
LINE
8
FFab
62
5
10
75.0
20
-21.4125
11
75.0
21
-22.2375
0
LINE
8
FFab
62
5
10
73.4
20
-21.4125
11
75.0
21
-21.4125
0
LINE
8
FCrtYd
62
7
10
64.93
20
-30.005
11
61.97
21
-30.005
0
LINE
8
FCrtYd
62
7
10
61.97
20
-28.545
11
64.93
21
-28.545
0
LINE
8
FCrtYd
62
7
10
64.93
20
-28.545
11
64.93
21
-30.005
0
LINE
8
FCrtYd
62
7
10
61.97
20
-30.005
11
61.97
21
-28.545
0
LINE
8
FFab
62
5
10
62.65
20
-29.675
11
62.65
21
-28.875
0
LINE
8
FFab
62
5
10
62.65
20
-28.875
11
64.25
21
-28.875
0
LINE
8
FFab
62
5
10
64.25
20
-29.675
11
62.65
21
-29.675
0
LINE
8
FFab
62
5
10
64.25
20
-28.875
11
64.25
21
-29.675
0
LINE
8
FCrtYd
62
7
10
47.195
20
-25.055
11
47.195
21
-23.595
0
LINE
8
FCrtYd
62
7
10
50.155
20
-23.595
11
50.155
21
-25.055
0
LINE
8
FCrtYd
62
7
10
47.195
20
-23.595
11
50.155
21
-23.595
0
LINE
8
FCrtYd
62
7
10
50.155
20
-25.055
11
47.195
21
-25.055
0
LINE
8
FFab
62
5
10
47.875
20
-23.9125
11
49.475
21
-23.9125
0
LINE
8
FFab
62
5
10
49.475
20
-24.7375
11
47.875
21
-24.7375
0
LINE
8
FFab
62
5
10
47.875
20
-24.7375
11
47.875
21
-23.9125
0
LINE
8
FFab
62
5
10
49.475
20
-23.9125
11
49.475
21
-24.7375
0
LINE
8
FCrtYd
62
7
10
72.575
20
-30.02
11
75.975
21
-30.02
0
LINE
8
FCrtYd
62
7
10
72.575
20
-31.98
11
72.575
21
-30.02
0
LINE
8
FCrtYd
62
7
10
75.975
20
-30.02
11
75.975
21
-31.98
0
LINE
8
FCrtYd
62
7
10
75.975
20
-31.98
11
72.575
21
-31.98
0
LINE
8
FFab
62
5
10
75.275
20
-31.625
11
73.275
21
-31.625
0
LINE
8
FFab
62
5
10
73.275
20
-30.375
11
75.275
21
-30.375
0
LINE
8
FFab
62
5
10
73.275
20
-31.625
11
73.275
21
-30.375
0
LINE
8
FFab
62
5
10
75.275
20
-30.375
11
75.275
21
-31.625
0
LINE
8
FCrtYd
62
7
10
43.495
20
-30.655
11
43.495
21
-29.195
0
LINE
8
FCrtYd
62
7
10
43.495
20
-29.195
11
46.455
21
-29.195
0
LINE
8
FCrtYd
62
7
10
46.455
20
-30.655
11
43.495
21
-30.655
0
LINE
8
FCrtYd
62
7
10
46.455
20
-29.195
11
46.455
21
-30.655
0
LINE
8
FFab
62
5
10
45.775
20
-29.5125
11
45.775
21
-30.3375
0
LINE
8
FFab
62
5
10
44.175
20
-29.5125
11
45.775
21
-29.5125
0
LINE
8
FFab
62
5
10
45.775
20
-30.3375
11
44.175
21
-30.3375
0
LINE
8
FFab
62
5
10
44.175
20
-30.3375
11
44.175
21
-29.5125
0
LINE
8
FCrtYd
62
7
10
67.17
20
-18.545
11
64.21
21
-18.545
0
LINE
8
FCrtYd
62
7
10
64.21
20
-18.545
11
64.21
21
-17.085
0
LINE
8
FCrtYd
62
7
10
64.21
20
-17.085
11
67.17
21
-17.085
0
LINE
8
FCrtYd
62
7
10
67.17
20
-17.085
11
67.17
21
-18.545
0
LINE
8
FFab
62
5
10
64.89
20
-18.2275
11
64.89
21
-17.4025
0
LINE
8
FFab
62
5
10
66.49
20
-18.2275
11
64.89
21
-18.2275
0
LINE
8
FFab
62
5
10
66.49
20
-17.4025
11
66.49
21
-18.2275
0
LINE
8
FFab
62
5
10
64.89
20
-17.4025
11
66.49
21
-17.4025
0
LINE
8
FCrtYd
62
7
10
50.18
20
-28.245
11
50.18
21
-29.705
0
LINE
8
FCrtYd
62
7
10
50.18
20
-29.705
11
47.22
21
-29.705
0
LINE
8
FCrtYd
62
7
10
47.22
20
-29.705
11
47.22
21
-28.245
0
LINE
8
FCrtYd
62
7
10
47.22
20
-28.245
11
50.18
21
-28.245
0
LINE
8
FFab
62
5
10
49.5
20
-29.3875
11
47.9
21
-29.3875
0
LINE
8
FFab
62
5
10
49.5
20
-28.5625
11
49.5
21
-29.3875
0
LINE
8
FFab
62
5
10
47.9
20
-28.5625
11
49.5
21
-28.5625
0
LINE
8
FFab
62
5
10
47.9
20
-29.3875
11
47.9
21
-28.5625
0
LINE
8
FCrtYd
62
7
10
71.045
20
-36.375
11
71.045
21
-34.915
0
LINE
8
FCrtYd
62
7
10
71.045
20
-34.915
11
74.005
21
-34.915
0
LINE
8
FCrtYd
62
7
10
74.005
20
-36.375
11
71.045
21
-36.375
0
LINE
8
FCrtYd
62
7
10
74.005
20
-34.915
11
74.005
21
-36.375
0
LINE
8
FFab
62
5
10
73.325
20
-35.2325
11
73.325
21
-36.0575
0
LINE
8
FFab
62
5
10
73.325
20
-36.0575
11
71.725
21
-36.0575
0
LINE
8
FFab
62
5
10
71.725
20
-35.2325
11
73.325
21
-35.2325
0
LINE
8
FFab
62
5
10
71.725
20
-36.0575
11
71.725
21
-35.2325
0
LINE
8
BCrtYd
62
8
10
44.105
20
-32.025
11
42.145
21
-32.025
0
LINE
8
BCrtYd
62
8
10
42.145
20
-35.425
11
44.105
21
-35.425
0
LINE
8
BCrtYd
62
8
10
42.145
20
-32.025
11
42.145
21
-35.425
0
LINE
8
BCrtYd
62
8
10
44.105
20
-35.425
11
44.105
21
-32.025
0
LINE
8
BFab
62
6
10
42.5
20
-32.725
11
42.5
21
-34.725
0
LINE
8
BFab
62
6
10
43.75
20
-34.725
11
43.75
21
-32.725
0
LINE
8
BFab
62
6
10
42.5
20
-34.725
11
43.75
21
-34.725
0
LINE
8
BFab
62
6
10
43.75
20
-32.725
11
42.5
21
-32.725
0
LINE
8
0
10
86.9
20
-29.15
11
77.735
21
-40.625
0
LINE
8
0
10
82.58
20
-12.625
11
76.12
21
-20.625
0
LINE
8
0
10
79.35
20
-12.625
11
76.12
21
-16.625
0
LINE
8
0
10
86.9
20
-12.625
11
86.9
21
-40.625
0
LINE
8
0
10
86.9
20
-31.15
11
79.35
21
-40.625
0
LINE
8
0
10
86.9
20
-19.15
11
76.12
21
-32.625
0
LINE
8
0
10
86.9
20
-39.15
11
85.81
21
-40.625
0
LINE
8
0
10
84.195
20
-12.625
11
76.12
21
-22.625
0
LINE
8
0
10
86.9
20
-33.15
11
80.965
21
-40.625
0
LINE
8
0
10
86.9
20
-15.15
11
76.12
21
-28.625
0
LINE
8
0
10
76.12
20
-12.625
11
86.9
21
-12.625
0
LINE
8
0
10
86.9
20
-23.15
11
76.12
21
-36.625
0
LINE
8
0
10
76.12
20
-34.625
11
86.9
21
-21.15
0
LINE
8
0
10
86.9
20
-35.15
11
82.58
21
-40.625
0
LINE
8
0
10
76.12
20
-12.625
11
76.12
21
-40.625
0
LINE
8
0
10
86.9
20
-25.15
11
76.12
21
-38.625
0
LINE
8
0
10
77.735
20
-12.625
11
76.12
21
-14.625
0
LINE
8
0
10
86.9
20
-13.15
11
76.12
21
-26.625
0
LINE
8
0
10
86.9
20
-27.15
11
76.12
21
-40.625
0
LINE
8
0
10
80.965
20
-12.625
11
76.12
21
-18.625
0
LINE
8
0
10
86.9
20
-37.15
11
84.195
21
-40.625
0
LINE
8
0
10
76.12
20
-40.625
11
86.9
21
-40.625
0
LINE
8
0
10
85.81
20
-12.625
11
76.12
21
-24.625
0
LINE
8
0
10
86.9
20
-17.15
11
76.12
21
-30.625
0
LINE
8
Cmts
62
1
10
82.15
20
-18.225
11
82.35
21
-18.425
0
LINE
8
Cmts
62
1
10
80.025
20
-40.425
11
79.825
21
-40.225
0
LINE
8
Cmts
62
1
10
80.025
20
-17.425
11
80.025
21
-12.825
0
LINE
8
Cmts
62
1
10
80.025
20
-12.825
11
79.825
21
-13.025
0
LINE
8
Cmts
62
1
10
86.75
20
-18.225
11
86.55
21
-18.425
0
LINE
8
Cmts
62
1
10
80.025
20
-40.425
11
80.025
21
-35.825
0
LINE
8
Cmts
62
1
10
80.025
20
-12.825
11
80.225
21
-13.025
0
LINE
8
Cmts
62
1
10
80.025
20
-35.825
11
79.825
21
-36.025
0
LINE
8
Cmts
62
1
10
80.025
20
-40.425
11
80.225
21
-40.225
0
LINE
8
Cmts
62
1
10
82.15
20
-18.225
11
82.35
21
-18.025
0
LINE
8
Cmts
62
1
10
80.025
20
-17.425
11
79.825
21
-17.225
0
LINE
8
Cmts
62
1
10
80.025
20
-17.425
11
80.225
21
-17.225
0
LINE
8
Cmts
62
1
10
80.025
20
-35.825
11
80.225
21
-36.025
0
LINE
8
Cmts
62
1
10
86.75
20
-18.225
11
86.55
21
-18.025
0
LINE
8
Cmts
62
1
10
82.15
20
-18.225
11
86.75
21
-18.225
0
LINE
8
BCrtYd
62
8
10
75.87
20
-16.875
11
75.87
21
-12.375
0
LINE
8
BCrtYd
62
8
10
75.87
20
-40.875
11
75.87
21
-36.375
0
LINE
8
BCrtYd
62
8
10
87.15
20
-40.875
11
75.87
21
-40.875
0
LINE
8
BCrtYd
62
8
10
87.15
20
-40.875
11
87.15
21
-12.375
0
LINE
8
BCrtYd
62
8
10
87.15
20
-12.375
11
75.87
21
-12.375
0
LINE
8
BCrtYd
62
8
10
55.65
20
-36.375
11
75.87
21
-36.375
0
LINE
8
BCrtYd
62
8
10
75.87
20
-16.875
11
55.65
21
-16.875
0
LINE
8
BCrtYd
62
8
10
55.65
20
-36.375
11
55.65
21
-16.875
0
LINE
8
BFab
62
6
10
56.39
20
-17.625
11
81.895
21
-17.625
0
LINE
8
BFab
62
6
10
75.17
20
-35.625
11
75.67
21
-35.125
0
LINE
8
BFab
62
6
10
81.895
20
-35.625
11
76.17
21
-35.625
0
LINE
8
BFab
62
6
10
75.17
20
-35.625
11
56.39
21
-35.625
0
LINE
8
BFab
62
6
10
56.39
20
-35.625
11
56.39
21
-17.625
0
LINE
8
BFab
62
6
10
75.67
20
-35.125
11
76.17
21
-35.625
0
LINE
8
BFab
62
6
10
81.895
20
-35.625
11
81.895
21
-17.625
0
LINE
8
0
10
20.125
20
-20.425
11
20.125
21
-32.475
0
LINE
8
BCrtYd
62
8
10
12.525
20
-21.9
11
14.775
21
-21.9
0
LINE
8
BCrtYd
62
8
10
14.775
20
-33.6
11
14.775
21
-31.0
0
LINE
8
BCrtYd
62
8
10
19.275
20
-32.97
11
35.325
21
-32.97
0
LINE
8
BCrtYd
62
8
10
12.525
20
-31.0
11
14.775
21
-31.0
0
LINE
8
BCrtYd
62
8
10
14.775
20
-19.3
11
19.275
21
-19.3
0
LINE
8
BCrtYd
62
8
10
19.275
20
-19.3
11
19.275
21
-19.93
0
LINE
8
BCrtYd
62
8
10
35.325
20
-19.93
11
35.325
21
-32.97
0
LINE
8
BCrtYd
62
8
10
14.775
20
-21.9
11
14.775
21
-19.3
0
LINE
8
BCrtYd
62
8
10
12.525
20
-21.9
11
12.525
21
-31.0
0
LINE
8
BCrtYd
62
8
10
19.275
20
-19.93
11
35.325
21
-19.93
0
LINE
8
BCrtYd
62
8
10
14.775
20
-33.6
11
19.275
21
-33.6
0
LINE
8
BCrtYd
62
8
10
19.275
20
-32.97
11
19.275
21
-33.6
0
LINE
8
BFab
62
6
10
13.525
20
-25.2
11
13.525
21
-25.7
0
LINE
8
BFab
62
6
10
13.525
20
-25.7
11
16.025
21
-25.7
0
LINE
8
BFab
62
6
10
13.525
20
-23.2
11
16.025
21
-23.2
0
LINE
8
BFab
62
6
10
13.525
20
-27.7
11
16.025
21
-27.7
0
LINE
8
BFab
62
6
10
16.025
20
-20.425
11
34.825
21
-20.425
0
LINE
8
BFab
62
6
10
34.825
20
-20.425
11
34.825
21
-32.475
0
LINE
8
BFab
62
6
10
16.175
20
-29.95
11
16.675
21
-30.45
0
LINE
8
BFab
62
6
10
13.525
20
-25.2
11
16.025
21
-25.2
0
LINE
8
BFab
62
6
10
13.525
20
-29.7
11
16.025
21
-29.7
0
LINE
8
BFab
62
6
10
16.675
20
-30.45
11
16.675
21
-29.5
0
LINE
8
BFab
62
6
10
13.525
20
-27.2
11
16.025
21
-27.2
0
LINE
8
BFab
62
6
10
13.525
20
-22.7
11
13.525
21
-23.2
0
LINE
8
BFab
62
6
10
13.525
20
-27.2
11
13.525
21
-27.7
0
LINE
8
BFab
62
6
10
16.175
20
-29.95
11
16.675
21
-29.45
0
LINE
8
BFab
62
6
10
16.025
20
-20.425
11
16.025
21
-32.475
0
LINE
8
BFab
62
6
10
13.525
20
-29.7
11
13.525
21
-30.2
0
LINE
8
BFab
62
6
10
16.025
20
-32.475
11
34.825
21
-32.475
0
LINE
8
BFab
62
6
10
13.525
20
-22.7
11
16.025
21
-22.7
0
LINE
8
BFab
62
6
10
13.525
20
-30.2
11
16.025
21
-30.2
0
CIRCLE
8
BFab
62
6
10
17.025
20
-24.15
40
0.5
0
CIRCLE
8
BFab
62
6
10
17.025
20
-28.75
40
0.5
0
LINE
8
BCrtYd
62
8
10
39.255
20
-30.6675
11
39.255
21
-27.7075
0
LINE
8
BCrtYd
62
8
10
39.255
20
-27.7075
11
37.795
21
-27.7075
0
LINE
8
BCrtYd
62
8
10
37.795
20
-30.6675
11
39.255
21
-30.6675
0
LINE
8
BCrtYd
62
8
10
37.795
20
-27.7075
11
37.795
21
-30.6675
0
LINE
8
BFab
62
6
10
38.125
20
-29.9875
11
38.925
21
-29.9875
0
LINE
8
BFab
62
6
10
38.925
20
-29.9875
11
38.925
21
-28.3875
0
LINE
8
BFab
62
6
10
38.925
20
-28.3875
11
38.125
21
-28.3875
0
LINE
8
BFab
62
6
10
38.125
20
-28.3875
11
38.125
21
-29.9875
0
LINE
8
BCrtYd
62
8
10
46.75
20
-31.925
11
39.55
21
-31.925
0
LINE
8
BCrtYd
62
8
10
39.55
20
-23.125
11
46.75
21
-23.125
0
LINE
8
BCrtYd
62
8
10
46.75
20
-23.125
11
46.75
21
-31.925
0
LINE
8
BCrtYd
62
8
10
39.55
20
-31.925
11
39.55
21
-23.125
0
LINE
8
BFab
62
6
10
39.8
20
-29.375
11
39.8
21
-25.675
0
LINE
8
BFab
62
6
10
45.5
20
-29.375
11
46.5
21
-28.375
0
LINE
8
BFab
62
6
10
46.5
20
-25.675
11
39.8
21
-25.675
0
LINE
8
BFab
62
6
10
45.5
20
-29.375
11
39.8
21
-29.375
0
LINE
8
BFab
62
6
10
46.5
20
-28.375
11
46.5
21
-25.675
0
LINE
8
BCrtYd
62
8
10
39.505
20
-25.45
11
39.505
21
-22.05
0
LINE
8
BCrtYd
62
8
10
37.545
20
-25.45
11
39.505
21
-25.45
0
LINE
8
BCrtYd
62
8
10
39.505
20
-22.05
11
37.545
21
-22.05
0
LINE
8
BCrtYd
62
8
10
37.545
20
-22.05
11
37.545
21
-25.45
0
LINE
8
BFab
62
6
10
37.9
20
-24.75
11
39.15
21
-24.75
0
LINE
8
BFab
62
6
10
37.9
20
-22.75
11
37.9
21
-24.75
0
LINE
8
BFab
62
6
10
39.15
20
-22.75
11
37.9
21
-22.75
0
LINE
8
BFab
62
6
10
39.15
20
-24.75
11
39.15
21
-22.75
0
LINE
8
Edge
62
2
10
54.725
20
-15.975
11
57.725
21
-12.45
0
LINE
8
Edge
62
2
10
34.725
20
-15.975
11
54.725
21
-15.975
0
LINE
8
Edge
62
2
10
32.725
20
-16.975
11
34.725
21
-15.975
0
LINE
8
Edge
62
2
10
76.725
20
-35.975
11
75.725
21
-36.975
0
LINE
8
Edge
62
2
10
76.725
20
-16.975
11
76.725
21
-35.975
0
LINE
8
Edge
62
2
10
27.725
20
-16.975
11
32.725
21
-16.975
0
LINE
8
Edge
62
2
10
34.725
20
-36.975
11
32.725
21
-35.975
0
LINE
8
Edge
62
2
10
57.725
20
-12.45
11
74.725
21
-12.45
0
LINE
8
Edge
62
2
10
32.725
20
-35.975
11
27.725
21
-35.975
0
LINE
8
Edge
62
2
10
75.725
20
-36.975
11
34.725
21
-36.975
0
LINE
8
Edge
62
2
10
74.725
20
-12.45
11
76.725
21
-16.975
0
LINE
8
Edge
62
2
10
27.725
20
-35.975
11
27.725
21
-16.975
0
ENDSEC
0
EOF
